<?xml version="1.0" standalone="no"?>
<!DOCTYPE svg PUBLIC "-//W3C//DTD SVG 20010904//EN"
 "http://www.w3.org/TR/2001/REC-SVG-20010904/DTD/svg10.dtd">
<svg version="1.0" xmlns="http://www.w3.org/2000/svg"
 width="256.000000pt" height="256.000000pt" viewBox="0 0 256.000000 256.000000"
 preserveAspectRatio="xMidYMid meet">
<metadata>
Created by potrace 1.16, written by Peter Selinger 2001-2019
</metadata>
<g transform="translate(0.000000,256.000000) scale(0.100000,-0.100000)"
fill="#000000" stroke="none">
<path d="M1348 2192 l-508 -207 0 -140 0 -139 45 44 c45 44 45 44 45 115 l0
71 433 181 c237 100 437 183 444 185 6 2 64 -59 127 -135 l116 -139 0 -864 0
-864 115 0 115 0 0 50 0 50 -70 0 -70 0 0 816 0 817 -137 183 c-76 101 -140
184 -143 184 -3 0 -233 -94 -512 -208z"/>
<path d="M1820 1232 l0 -933 68 3 67 3 3 847 2 847 -62 73 c-34 40 -65 77 -70
83 -4 5 -8 -411 -8 -923z"/>
<path d="M979 1696 c-113 -50 -276 -122 -362 -160 l-157 -68 0 -534 0 -534
-90 0 -90 0 0 -50 0 -51 138 3 137 3 3 560 2 560 325 139 324 139 38 -26 c21
-15 83 -60 138 -100 l100 -73 3 -602 2 -602 115 0 115 0 0 50 0 50 -70 0 -70
0 0 560 0 560 -180 135 c-99 74 -187 135 -197 134 -10 -1 -111 -42 -224 -93z"/>
<path d="M1210 931 l0 -631 70 0 70 0 0 585 0 584 -57 39 c-32 21 -64 42 -70
46 -10 6 -13 -122 -13 -623z"/>
<path d="M855 1350 l-150 -68 -3 -92 c-1 -51 1 -90 6 -88 5 1 77 32 161 68
l151 64 0 93 c0 51 -3 93 -7 92 -5 0 -75 -31 -158 -69z"/>
<path d="M855 951 l-150 -47 -3 -87 c-1 -48 1 -87 5 -87 4 0 77 19 160 42
l153 43 0 93 c0 50 -3 92 -7 91 -5 0 -75 -22 -158 -48z"/>
<path d="M890 594 c-63 -19 -132 -39 -152 -45 l-38 -10 0 -69 0 -70 160 0 160
0 0 115 c0 63 -3 115 -7 114 -5 -1 -60 -16 -123 -35z"/>
<path d="M280 210 l0 -50 1000 0 1000 0 0 50 0 50 -1000 0 -1000 0 0 -50z"/>
</g>
</svg>
